<?xml version="1.0" encoding="UTF-8" standalone="no"?>
<!-- Created with Inkscape (http://www.inkscape.org/) -->

<svg
   version="1.1"
   id="svg2"
   width="5139.6079"
   height="5139.6069"
   viewBox="0 0 5139.6079 5139.6069"
   sodipodi:docname="vecteezy_web-icon-vector-line-on-white-background-image-for-web_3731316.eps"
   xmlns:inkscape="http://www.inkscape.org/namespaces/inkscape"
   xmlns:sodipodi="http://sodipodi.sourceforge.net/DTD/sodipodi-0.dtd"
   xmlns="http://www.w3.org/2000/svg"
   xmlns:svg="http://www.w3.org/2000/svg">
  <defs
     id="defs6" />
  <sodipodi:namedview
     id="namedview4"
     pagecolor="#505050"
     bordercolor="#eeeeee"
     borderopacity="1"
     inkscape:showpageshadow="0"
     inkscape:pageopacity="0"
     inkscape:pagecheckerboard="0"
     inkscape:deskcolor="#505050"
     showgrid="false" />
  <g
     id="g10"
     inkscape:groupmode="layer"
     inkscape:label="Page 1"
     transform="matrix(1.3333333,0,0,-1.3333333,-96.862587,5236.4701)">
    <path
       d="m 3105.9999,1119.6552 c -80.869,20.7814 -165.8054,39.1954 -254.1417,55.0991 26.3739,116.3942 47.1551,238.3969 61.8196,363.5612 15.0299,128.1673 23.7205,260.1157 25.9448,393.1445 h 829.2496 c -12.6468,-335.2968 -118.0784,-654.5152 -307.382,-930.5504 -104.0652,44.8991 -223.3194,84.7457 -355.4903,118.7456 z M 1060.3779,1931.46 c 2.2243,-133.0288 10.915,-264.9772 25.9449,-393.1445 14.6644,-125.1643 35.4457,-247.167 61.8195,-363.5612 -88.3364,-15.9037 -173.25682,-34.3177 -254.11012,-55.0991 C 761.84551,1085.6553 642.59141,1045.8087 538.51022,1000.9096 349.21781,1276.929 243.77341,1596.1632 231.12352,1931.46 Z m -164.74099,951.9831 c 80.61497,-20.686 165.24949,-39.0046 253.28389,-54.829 -26.2785,-115.3137 -47.028,-236.1885 -61.8037,-360.2089 -14.7438,-123.8297 -23.5616,-251.2343 -26.342,-379.7827 H 232.00846 c 16.10392,329.0847 121.78028,642.1703 308.36056,913.1691 104.06539,-44.7561 223.23995,-84.4756 355.26789,-118.3485 z M 2078.5815,2088.6225 v 668.6235 c 173.4474,2.5262 343.9239,13.4094 507.791,32.4588 36.828,4.274 73.2271,8.9449 109.1653,14.0132 51.2064,-221.4923 80.7896,-466.3079 86.4775,-715.0955 z m 508.4742,-874.9112 c -164.0737,19.1131 -334.7726,30.0121 -508.4742,32.5383 V 1931.46 h 703.8311 c -4.4964,-254.4118 -33.9683,-505.1536 -86.0804,-731.7935 -35.9701,5.0682 -72.4167,9.7709 -109.2765,14.0448 z M 2078.5815,239.29467 v 849.76073 c 167.6165,-2.5103 332.1986,-13.0599 490.3145,-31.458 29.5195,-3.4317 58.769,-7.1496 87.7325,-11.1215 -67.4915,-232.85201 -158.767,-429.22556 -266.5979,-572.4067 -70.383,-93.45224 -177.6895,-202.47457 -311.4491,-234.77453 z m -647.4293,818.30273 c 158.0841,18.3981 322.6661,28.9477 490.2669,31.458 V 239.27877 c -133.7598,32.29997 -241.0503,141.32228 -311.4493,234.79043 -107.8148,143.18114 -199.1063,339.55469 -266.5978,572.4067 28.9793,3.9719 58.2448,7.6898 87.7802,11.1215 z m 490.2669,873.8626 v -685.2104 c -173.7018,-2.5262 -344.3847,-13.4411 -508.4265,-32.5224 -36.8916,-4.2898 -73.3383,-8.9925 -109.3242,-14.0607 -52.1123,226.6399 -81.5841,477.3817 -86.0803,731.7935 z m -507.7752,858.2448 c 163.867,-19.0494 334.3276,-29.9326 507.7752,-32.4588 v -668.6235 h -703.4339 c 5.6879,248.7876 35.271,493.6032 86.4775,715.0955 35.9542,-5.0524 72.3532,-9.7392 109.1812,-14.0132 z m 507.7752,971.001 v -846.2656 c -167.3625,2.5103 -331.7221,13.0281 -489.6472,31.3785 -29.4084,3.4159 -58.5466,7.1178 -87.399,11.0739 67.5392,231.9146 158.7195,427.4462 266.3119,569.9919 70.2402,93.055 177.2923,201.6007 310.7343,233.8213 z m 157.1624,0 c 133.426,-32.2047 240.4941,-140.7663 310.7342,-233.8213 107.5924,-142.5457 198.7728,-338.0773 266.3278,-570.0078 -28.8524,-3.9561 -57.9906,-7.6421 -87.399,-11.058 -157.9251,-18.3504 -322.3007,-28.8682 -489.663,-31.3785 z m 860.6439,-1672.0833 c -2.7803,128.5484 -11.5981,255.953 -26.3421,379.7827 -14.7597,124.0204 -35.5251,244.8952 -61.8036,360.193 88.0345,15.8244 172.6848,34.143 253.2997,54.829 132.0121,33.8888 251.1866,73.6083 355.2679,118.3644 186.5708,-270.9829 292.2407,-584.0526 308.351,-913.1691 z M 2440.5699,3715.616 c 7.1495,-1.8111 14.2672,-3.6701 21.3851,-5.5766 0.7943,-0.2065 1.5887,-0.4131 2.3831,-0.6197 6.9112,-1.8587 13.8224,-3.7654 20.7177,-5.7036 0.9533,-0.2702 1.9065,-0.5402 2.8757,-0.8104 6.8,-1.9224 13.5682,-3.8925 20.3363,-5.9102 1.0169,-0.2859 2.0179,-0.5879 3.0347,-0.8898 6.7524,-2.0177 13.4728,-4.0672 20.1934,-6.1644 0.9851,-0.3019 1.9701,-0.6196 2.9552,-0.9215 6.7681,-2.129 13.5365,-4.2898 20.2728,-6.4823 0.858,-0.2859 1.7159,-0.5719 2.5739,-0.8578 6.8794,-2.2561 13.743,-4.5599 20.5906,-6.8954 0.6196,-0.2225 1.2392,-0.429 1.859,-0.6514 7.0858,-2.4309 14.1718,-4.9094 21.2419,-7.4355 0.1907,-0.08 0.3972,-0.1588 0.6038,-0.2225 7.2449,-2.6055 14.4738,-5.2588 21.6868,-7.9438 0.1747,-0.064 0.3495,-0.1271 0.5243,-0.1907 7.0383,-2.6374 14.0767,-5.3224 21.0673,-8.0551 0.5879,-0.2224 1.1757,-0.445 1.7636,-0.6673 6.7523,-2.6374 13.4728,-5.3224 20.1934,-8.0393 0.8103,-0.3337 1.6205,-0.6513 2.4308,-0.985 6.5776,-2.6692 13.1392,-5.386 19.6851,-8.1346 0.9215,-0.3972 1.827,-0.7785 2.7327,-1.1598 6.4822,-2.7327 12.9485,-5.513 19.399,-8.3411 0.9374,-0.3972 1.8748,-0.8104 2.8122,-1.2233 6.4505,-2.8439 12.885,-5.7038 19.3196,-8.6272 0.8579,-0.3813 1.7158,-0.7785 2.5896,-1.1757 6.4983,-2.971 12.9963,-5.9738 19.4626,-9.0083 0.6991,-0.3338 1.3822,-0.6674 2.0815,-0.9851 6.6569,-3.1458 13.2821,-6.3234 19.8915,-9.5486 0.3972,-0.1907 0.7943,-0.3813 1.1915,-0.5719 13.7907,-6.7524 27.4861,-13.6795 41.1019,-20.7813 0.3653,-0.1907 0.7307,-0.3814 1.0962,-0.572 6.5299,-3.416 13.0439,-6.8795 19.5262,-10.3748 0.6672,-0.3655 1.3187,-0.715 1.9859,-1.0645 6.2915,-3.4158 12.5673,-6.8634 18.8271,-10.3429 0.8262,-0.4607 1.6524,-0.9215 2.4786,-1.3822 6.1644,-3.4478 12.2972,-6.9271 18.4139,-10.4543 0.8739,-0.5084 1.7636,-1.0009 2.6374,-1.5093 6.085,-3.5272 12.1701,-7.086 18.2234,-10.6767 0.8579,-0.5083 1.7158,-1.0168 2.5738,-1.5252 6.0851,-3.6382 12.17,-7.3085 18.2074,-11.0102 0.7626,-0.4608 1.5094,-0.9215 2.2561,-1.3823 6.1645,-3.7972 12.3131,-7.6261 18.4458,-11.5028 0.5401,-0.3336 1.0644,-0.6831 1.6048,-1.0168 6.3391,-4.0197 12.6625,-8.0869 18.9541,-12.186 0.1747,-0.1112 0.3654,-0.2382 0.5401,-0.3495 6.4505,-4.2102 12.8691,-8.4682 19.272,-12.7579 0.1589,-0.1112 0.3018,-0.2066 0.4607,-0.3019 6.2439,-4.2102 12.4719,-8.4523 18.6682,-12.742 0.5084,-0.3495 1.0328,-0.699 1.5411,-1.0645 5.9738,-4.1308 11.9,-8.2935 17.8262,-12.5037 0.7308,-0.5244 1.4617,-1.0328 2.1766,-1.557 5.7831,-4.1309 11.5504,-8.2935 17.286,-12.4879 0.8262,-0.6038 1.6523,-1.2074 2.4785,-1.8111 5.672,-4.1786 11.3279,-8.3888 16.9523,-12.631 0.8421,-0.6354 1.6841,-1.271 2.5262,-1.9065 5.6402,-4.2579 11.2486,-8.5476 16.8251,-12.8851 0.7945,-0.6037 1.573,-1.2232 2.3674,-1.827 5.6402,-4.4009 11.2804,-8.8336 16.8888,-13.2981 0.6355,-0.5243 1.2869,-1.0486 1.9383,-1.573 5.7513,-4.5915 11.4709,-9.2149 17.1588,-13.9017 0.3972,-0.3179 0.7944,-0.6515 1.1916,-0.9692 11.9,-9.7869 23.6729,-19.7487 35.3504,-29.8533 0.3496,-0.3177 0.7151,-0.6355 1.0805,-0.9532 5.5925,-4.8457 11.1372,-9.7392 16.6663,-14.6644 0.6196,-0.5561 1.2393,-1.1122 1.8588,-1.6524 5.3701,-4.7981 10.6925,-9.6281 16.0149,-14.4898 0.7468,-0.699 1.5094,-1.3822 2.2721,-2.0812 5.2111,-4.7982 10.4064,-9.6281 15.5859,-14.5057 0.7944,-0.7467 1.6046,-1.5092 2.399,-2.2719 5.1477,-4.8616 10.2636,-9.7551 15.3636,-14.6803 0.7785,-0.7627 1.5728,-1.5253 2.3514,-2.272 5.1159,-4.9888 10.2158,-9.9935 15.2841,-15.0299 0.699,-0.6991 1.3822,-1.3822 2.0812,-2.0813 5.1636,-5.1476 10.2954,-10.3272 15.3954,-15.5542 0.5243,-0.5243 1.0486,-1.0645 1.5729,-1.6047 5.2747,-5.4177 10.5336,-10.8514 15.7448,-16.3327 0.2225,-0.2383 0.4607,-0.4925 0.6833,-0.7308 5.3064,-5.5925 10.5812,-11.2168 15.8242,-16.8887 0.1906,-0.2067 0.3972,-0.4132 0.5878,-0.6196 5.1636,-5.5767 10.2795,-11.201 15.3953,-16.8571 0.4926,-0.5561 0.9851,-1.0963 1.4776,-1.6523 4.9093,-5.4495 9.7869,-10.9468 14.6327,-16.4916 0.6673,-0.7309 1.3187,-1.4775 1.9701,-2.2243 4.7504,-5.4337 9.4691,-10.899 14.1561,-16.3962 0.7149,-0.8421 1.4458,-1.6842 2.1766,-2.5421 4.6393,-5.4495 9.2466,-10.9467 13.8225,-16.4598 0.3654,-0.429 0.7149,-0.8579 1.0803,-1.3028 -153.2223,-61.6925 -341.2548,-112.883 -549.576,-149.854 -73.4177,258.6698 -175.3859,478.5733 -297.3409,640.1525 -26.2625,34.7944 -53.3513,66.7289 -81.1709,95.756 1.8431,-0.4607 3.7018,-0.8897 5.5449,-1.3664 0.4766,-0.1112 0.9533,-0.2223 1.4299,-0.3495 z M 639.42969,3132.6279 c 4.55987,5.4813 9.15146,10.9467 13.77476,16.3645 0.74673,0.8896 1.49348,1.7635 2.24022,2.6532 4.67101,5.4654 9.37384,10.899 14.09246,16.3009 0.66731,0.7627 1.35054,1.5252 2.01775,2.3038 4.84577,5.5131 9.70745,10.9944 14.60093,16.4439 0.50846,0.556 1.01683,1.1121 1.50939,1.6682 5.09995,5.6402 10.2158,11.2645 15.36347,16.8412 0.20657,0.2223 0.41314,0.4289 0.6197,0.6512 5.22709,5.6562 10.5018,11.2646 15.79251,16.8412 0.23828,0.2542 0.46076,0.5084 0.69902,0.7467 5.2112,5.4813 10.4542,10.915 15.729,16.3168 0.52427,0.5402 1.04854,1.0963 1.58871,1.6365 5.10005,5.2111 10.23181,10.3907 15.37948,15.5383 0.69902,0.6991 1.39806,1.3982 2.09718,2.0813 5.06824,5.0364 10.16819,10.0411 15.28404,15.014 0.77855,0.7626 1.57292,1.5252 2.35147,2.2879 5.09995,4.9252 10.2158,9.8187 15.36347,14.6803 0.79446,0.7627 1.60472,1.5252 2.39907,2.2719 5.17948,4.8776 10.37476,9.7075 15.60186,14.5057 0.74673,0.699 1.50939,1.3822 2.25613,2.0812 5.30651,4.8617 10.64484,9.6917 16.01488,14.4898 0.6196,0.5402 1.2393,1.0963 1.8589,1.6524 5.52899,4.9252 11.07378,9.8187 16.66629,14.6644 0.36542,0.3177 0.73084,0.6355 1.08045,0.9374 11.67748,10.1364 23.4663,20.0822 35.36625,29.8691 0.39723,0.3337 0.77855,0.6513 1.17579,0.9692 5.68783,4.6868 11.42328,9.3261 17.17464,13.9177 0.65142,0.5243 1.28693,1.0327 1.92243,1.5411 5.60841,4.4804 11.24864,8.9131 16.90467,13.314 0.77856,0.6038 1.55701,1.2233 2.35146,1.827 5.57661,4.3375 11.20093,8.6272 16.82515,12.8851 0.84207,0.6355 1.68414,1.2711 2.52622,1.9065 5.62434,4.2422 11.28034,8.4524 16.96814,12.631 0.8262,0.6037 1.6524,1.2073 2.4786,1.8111 5.7354,4.1944 11.4869,8.357 17.27,12.4879 0.7309,0.5242 1.4617,1.0326 2.1926,1.557 5.9103,4.2102 11.8364,8.3729 17.8103,12.5037 0.5242,0.3655 1.0485,0.715 1.5729,1.0804 6.18032,4.2738 12.39252,8.5159 18.63642,12.7102 0.1588,0.1112 0.3177,0.2225 0.4766,0.3337 6.3869,4.2897 12.8056,8.5318 19.2561,12.7261 0.1748,0.1272 0.3654,0.2542 0.556,0.3814 6.2916,4.0989 12.5991,8.1345 18.9383,12.1541 0.5402,0.3496 1.0805,0.6991 1.6206,1.0327 6.1168,3.8767 12.2653,7.6897 18.4299,11.4869 0.7467,0.4608 1.5094,0.9374 2.2719,1.3982 6.0374,3.7017 12.1065,7.372 18.1916,10.9943 0.858,0.5243 1.7318,1.0328 2.6056,1.557 6.0374,3.5748 12.1066,7.1336 18.1915,10.6449 0.8899,0.5085 1.7795,1.0327 2.6692,1.5411 6.101,3.5113 12.2336,6.9906 18.3823,10.4384 0.8421,0.4607 1.6682,0.9215 2.4944,1.3822 6.2438,3.4795 12.5196,6.9271 18.8111,10.327 0.6674,0.3654 1.3505,0.7309 2.0337,1.0963 6.4663,3.4953 12.9645,6.9429 19.4785,10.3589 0.3813,0.1906 0.7625,0.3972 1.1438,0.5879 13.5841,7.0859 27.2636,13.9971 41.0225,20.7336 0.429,0.2065 0.8421,0.413 1.2552,0.6196 6.5934,3.2093 13.2027,6.371 19.828,9.5169 0.7149,0.3335 1.4298,0.6671 2.1448,1.0009 6.4505,3.0504 12.9327,6.0373 19.4149,8.9925 0.8898,0.3971 1.7635,0.8102 2.6533,1.2074 6.4027,2.9075 12.8373,5.7674 19.272,8.6113 0.9532,0.4129 1.8906,0.8261 2.8439,1.2392 6.4346,2.8122 12.885,5.5766 19.3514,8.3094 0.9214,0.3971 1.8588,0.7943 2.7962,1.1915 6.5298,2.7327 13.0598,5.4495 19.6215,8.1187 0.8262,0.3337 1.6683,0.6672 2.4944,1.0009 6.6888,2.701 13.4094,5.386 20.1457,8.0074 0.6038,0.2383 1.2075,0.4767 1.8112,0.6991 6.9906,2.7169 13.9814,5.4019 21.0038,8.0234 0.2065,0.08 0.413,0.1588 0.6196,0.2382 7.1814,2.6692 14.3784,5.3067 21.5916,7.8963 0.2224,0.08 0.4289,0.159 0.6513,0.2384 7.0383,2.5261 14.1085,4.9887 21.1786,7.4196 0.6513,0.2225 1.2869,0.4448 1.9224,0.6673 6.8317,2.3355 13.6794,4.6234 20.543,6.8954 0.8737,0.2859 1.7476,0.5719 2.6214,0.8578 6.7364,2.1925 13.473,4.3533 20.2411,6.4823 0.9851,0.3019 1.9859,0.6196 2.9869,0.9215 6.7047,2.0972 13.4253,4.1467 20.1458,6.1486 1.0328,0.3177 2.0654,0.6197 3.0822,0.9215 6.7683,2.0018 13.5365,3.9719 20.3206,5.8943 0.9533,0.2702 1.9224,0.5402 2.8915,0.8104 6.8795,1.9382 13.7748,3.8449 20.6861,5.6878 0.8102,0.2224 1.6046,0.429 2.4149,0.6514 7.1018,1.8906 14.2196,3.7496 21.3691,5.5607 0.4766,0.1272 0.9691,0.2383 1.4458,0.3654 1.8271,0.4608 3.6542,0.8898 5.4813,1.3505 -27.8038,-29.0429 -54.8924,-60.9616 -81.155,-95.756 -121.9551,-161.5792 -223.9232,-381.4669 -297.3408,-640.1367 -208.33722,36.9869 -396.38569,88.1616 -549.57618,149.8382 0.38133,0.4449 0.74675,0.8897 1.11217,1.3505 z M 1545.7195,289.72265 c -2.844,0.76261 -5.7038,1.52523 -8.5477,2.30374 -5.0682,1.38224 -10.1365,2.78039 -15.1889,4.21026 -2.9551,0.84206 -5.9101,1.68414 -8.8653,2.54202 -4.957,1.41405 -9.898,2.85982 -14.8392,4.3374 -3.0346,0.9056 -6.0691,1.81119 -9.1038,2.73268 -3.8925,1.19159 -7.7692,2.38318 -11.6616,3.59067 -4.0673,1.25521 -8.1347,2.54212 -12.186,3.82904 -3.3046,1.04854 -6.6093,2.11308 -9.8982,3.19343 -4.6073,1.49348 -9.2149,3.01867 -13.8064,4.54387 -3.0029,1.00093 -5.9898,2.01775 -8.9925,3.03458 -4.8776,1.65234 -9.7393,3.33649 -14.601,5.03643 -2.8122,0.98512 -5.6084,1.97014 -8.4205,2.97106 -5.0047,1.77948 -10.0093,3.59067 -14.9981,5.41775 -2.701,0.96912 -5.386,1.97004 -8.0711,2.95517 -5.0522,1.8747 -10.0887,3.78132 -15.1251,5.70374 -2.6533,1.00092 -5.2908,2.01776 -7.944,3.03459 -4.7981,1.8588 -9.5803,3.74951 -14.3626,5.64012 -2.8916,1.14397 -5.7673,2.28783 -8.6589,3.44771 -3.6701,1.47748 -7.3242,2.97096 -10.9943,4.48036 -2.2403,0.9215 -4.4804,1.85879 -6.7206,2.7803 -5.4653,2.27203 -10.915,4.55987 -16.3645,6.89532 -1.8271,0.77856 -3.6541,1.57291 -5.4813,2.35147 -5.8467,2.52611 -11.6775,5.06813 -17.4925,7.64197 -1.7159,0.76265 -3.4318,1.5412 -5.1476,2.30375 -5.9103,2.65325 -11.8206,5.32242 -17.7149,8.0393 -1.6365,0.76254 -3.273,1.52519 -4.9254,2.28783 -5.942,2.7486 -11.868,5.5448 -17.7943,8.37292 -1.5888,0.76254 -3.1775,1.52519 -4.7504,2.28784 -5.9898,2.87563 -11.9636,5.79907 -17.9056,8.73833 -1.5094,0.74663 -3.0028,1.49338 -4.4963,2.24012 -6.0532,3.01867 -12.1065,6.06917 -18.128,9.16727 -1.3822,0.71493 -2.7644,1.41406 -4.1466,2.12899 -6.2758,3.24114 -12.5198,6.51401 -18.7636,9.83458 -1.1122,0.58778 -2.2403,1.17568 -3.3523,1.77948 -11.0898,5.92611 -22.1318,11.96346 -33.0945,18.12797 -0.5242,0.28599 -1.0327,0.58789 -1.5411,0.87377 -6.7206,3.78133 -13.4251,7.61037 -20.0981,11.47112 -1.3663,0.79436 -2.7169,1.58871 -4.0831,2.38317 -5.7991,3.38409 -11.5822,6.7999 -17.3337,10.24762 -1.5887,0.9533 -3.1775,1.90651 -4.7663,2.87573 -5.4972,3.30466 -10.9785,6.65695 -16.4439,10.02514 -1.7159,1.06455 -3.4318,2.12899 -5.1477,3.19354 -5.2906,3.28876 -10.5655,6.62513 -15.8243,9.97753 -1.827,1.15977 -3.6383,2.31964 -5.4495,3.47942 -5.084,3.25695 -10.1364,6.54582 -15.1729,9.85049 -1.97,1.28692 -3.9402,2.58964 -5.8944,3.89246 -4.7663,3.14582 -9.5168,6.33925 -14.2513,9.53268 -2.1926,1.49349 -4.4009,2.97107 -6.5776,4.46455 -4.11502,2.81211 -8.21402,5.64012 -12.29712,8.46824 -2.7805,1.93823 -5.5608,3.87655 -8.3253,5.83079 -3.0028,2.11308 -5.9898,4.22617 -8.9766,6.35515 -3.829,2.71679 -7.6421,5.44947 -11.4393,8.21396 -2.8599,2.06547 -5.7197,4.16265 -8.5795,6.25983 -3.8766,2.84392 -7.7691,5.71965 -11.6298,8.61118 -2.71691,2.01776 -5.40188,4.05142 -8.10285,6.08507 -3.36819,2.54203 -6.72057,5.09996 -10.07286,7.67379 -3.12991,2.38316 -6.24392,4.79815 -9.35793,7.21313 -3.16172,2.46261 -6.32334,4.9252 -9.46916,7.4196 -3.20934,2.52612 -6.41868,5.06825 -9.61211,7.62617 -3.17763,2.54202 -6.33925,5.08405 -9.50098,7.65788 -3.03458,2.4468 -6.06916,4.9253 -9.08784,7.4038 -3.35228,2.74859 -6.70467,5.52899 -10.04105,8.30929 -2.58974,2.1608 -5.17948,4.3374 -7.76922,6.514 -3.74951,3.16173 -7.48312,6.33926 -11.20092,9.53269 -1.92242,1.65233 -3.84484,3.30466 -5.76727,4.957 -4.36911,3.78133 -8.70651,7.57856 -13.02801,11.40749 -1.843,1.62053 -3.686,3.24116 -5.52899,4.87759 -4.36912,3.90836 -8.73833,7.83273 -13.07563,11.7729 -1.73176,1.57292 -3.46362,3.14572 -5.17949,4.71863 -4.43272,4.05141 -8.83365,8.13463 -13.21867,12.21776 -1.58882,1.49348 -3.16162,2.97106 -4.75044,4.46454 -4.49625,4.22617 -8.9766,8.48405 -13.42524,12.75793 -1.39816,1.35044 -2.81211,2.71678 -4.22617,4.08312 -4.59158,4.44864 -9.16727,8.91309 -13.72704,13.40934 -1.17568,1.15977 -2.33556,2.33556 -3.51124,3.49534 -4.75043,4.73453 -9.48507,9.48507 -14.18779,14.26731 -0.87389,0.87378 -1.73186,1.76347 -2.58974,2.65326 -4.68691,4.78225 -9.35793,9.59621 -13.99723,14.44198 -0.68312,0.73082 -1.38224,1.46166 -2.08128,2.1767 -4.81405,5.05233 -9.6121,10.15229 -14.36264,15.25223 -0.71493,0.76266 -1.42986,1.5253 -2.12889,2.28785 -4.81406,5.17947 -9.59631,10.42246 -14.34675,15.66546 -0.81026,0.8897 -1.62052,1.76358 -2.41497,2.65327 -4.68692,5.21118 -9.34203,10.43827 -13.98123,15.69718 -0.82617,0.95321 -1.66824,1.8906 -2.51032,2.84391 -4.60749,5.25891 -9.18316,10.54952 -13.72714,15.85604 -0.81026,0.96921 -1.63642,1.92242 -2.44668,2.87573 -4.55978,5.35413 -9.08785,10.74017 -13.60001,16.14202 -0.34951,0.42894 -0.68312,0.84208 -1.03274,1.27101 153.33353,61.96256 341.76322,113.37565 550.65654,150.50531 73.3224,-259.52759 175.3381,-480.19371 297.4837,-642.3767 25.8655,-34.34952 52.5252,-65.91863 79.8841,-94.65974 -0.985,0.25422 -1.986,0.49253 -2.9709,0.74673 -5.2114,1.35047 -10.4225,2.71683 -15.6178,4.11496 z m 1816.9644,580.39843 c -4.4963,-5.40185 -9.0403,-10.78789 -13.6001,-16.14202 -0.8103,-0.95331 -1.6205,-1.90652 -2.4307,-2.85983 -4.5599,-5.32242 -9.1515,-10.61303 -13.759,-15.88784 -0.8262,-0.93741 -1.6364,-1.85891 -2.4626,-2.7962 -4.6392,-5.27481 -9.3102,-10.51781 -14.0131,-15.7449 -0.7943,-0.85798 -1.5888,-1.73176 -2.3672,-2.60565 -4.7823,-5.27471 -9.5645,-10.5018 -14.3943,-15.71298 -0.6992,-0.74674 -1.3983,-1.47758 -2.0815,-2.22432 -4.7822,-5.14766 -9.5962,-10.24762 -14.4419,-15.33176 -0.6673,-0.69902 -1.3347,-1.39816 -2.002,-2.09718 -4.671,-4.87758 -9.3738,-9.73925 -14.0924,-14.55331 -0.8421,-0.85788 -1.6683,-1.71586 -2.4944,-2.55793 -4.7345,-4.81395 -9.501,-9.5962 -14.2831,-14.34675 -1.144,-1.14387 -2.272,-2.27193 -3.4319,-3.4158 -4.5756,-4.52806 -9.1832,-9.02432 -13.8065,-13.48876 -1.3821,-1.33463 -2.7486,-2.66916 -4.1308,-4.0038 -4.4804,-4.30559 -8.9767,-8.57938 -13.5046,-12.83735 -1.557,-1.46167 -3.0982,-2.90744 -4.6552,-4.36912 -4.4169,-4.13084 -8.8654,-8.22996 -13.3141,-12.31308 -1.684,-1.5411 -3.384,-3.0823 -5.0681,-4.60749 -4.3852,-3.9879 -8.7861,-7.94387 -13.2029,-11.88405 -1.7953,-1.58881 -3.5906,-3.17763 -5.386,-4.76644 -4.369,-3.86065 -8.7541,-7.70559 -13.155,-11.51863 -1.8748,-1.60473 -3.7496,-3.20934 -5.6243,-4.82986 -3.8131,-3.27296 -7.6421,-6.52992 -11.4869,-9.77107 -2.4785,-2.09718 -4.9729,-4.17844 -7.4514,-6.24391 -3.4319,-2.87573 -6.8795,-5.71966 -10.3271,-8.54767 -2.9075,-2.39908 -5.8149,-4.76635 -8.7383,-7.13361 -3.2729,-2.65326 -6.5458,-5.29061 -9.8345,-7.91217 -3.0665,-2.44668 -6.1328,-4.89348 -9.1991,-7.30836 -3.2729,-2.58974 -6.5617,-5.14767 -9.8506,-7.70559 -2.9392,-2.28784 -5.8942,-4.57578 -8.8494,-6.84772 -3.5112,-2.68507 -7.0384,-5.37004 -10.5654,-8.0392 -2.6374,-1.98605 -5.2748,-3.98789 -7.9281,-5.95793 -3.9243,-2.92334 -7.8645,-5.84679 -11.8046,-8.73833 -2.7963,-2.04956 -5.5925,-4.08322 -8.3888,-6.11677 -3.8608,-2.79631 -7.7374,-5.57671 -11.614,-8.35701 -2.9234,-2.06547 -5.8467,-4.14675 -8.7702,-6.19631 -3.0345,-2.14489 -6.0849,-4.25787 -9.1195,-6.37096 -3.829,-2.65336 -7.6579,-5.29071 -11.4869,-7.91216 -2.3672,-1.62062 -4.7346,-3.22524 -7.1018,-4.81406 -4.5598,-3.08219 -9.1196,-6.14859 -13.7113,-9.18317 -2.0972,-1.38225 -4.1943,-2.7803 -6.3075,-4.16254 -4.8776,-3.19354 -9.7869,-6.38697 -14.6963,-9.54859 -1.97,-1.25521 -3.9242,-2.51032 -5.8942,-3.76543 -5.1001,-3.24114 -10.216,-6.46639 -15.3477,-9.65983 -1.843,-1.15987 -3.7019,-2.30374 -5.5766,-3.46351 -5.2748,-3.25706 -10.5813,-6.49821 -15.8879,-9.69164 -1.7635,-1.06444 -3.5271,-2.12899 -5.2906,-3.17753 -5.5131,-3.30467 -11.042,-6.57763 -16.5869,-9.80277 -1.6046,-0.9374 -3.2094,-1.89071 -4.8141,-2.82812 -6.1168,-3.54294 -12.2495,-7.03827 -18.398,-10.5018 -1.0645,-0.6196 -2.1449,-1.22339 -3.2094,-1.82709 -3.6383,-2.03365 -7.2766,-4.06731 -10.9309,-6.08507 -0.3971,-0.22247 -0.8102,-0.44484 -1.2233,-0.66731 -6.8795,-3.79713 -13.7906,-7.54675 -20.7178,-11.24855 -1.3822,-0.73083 -2.7645,-1.46166 -4.1467,-2.20841 -5.9579,-3.16173 -11.9477,-6.29163 -17.9373,-9.38974 -1.557,-0.81026 -3.1298,-1.60461 -4.6869,-2.41498 -5.8467,-2.98686 -11.6934,-5.95792 -17.556,-8.88127 -1.6524,-0.82617 -3.3048,-1.63643 -4.9571,-2.4626 -5.7831,-2.85982 -11.5823,-5.68784 -17.3972,-8.48415 -1.7317,-0.84196 -3.4635,-1.66813 -5.2112,-2.51021 -5.7354,-2.73268 -11.5027,-5.44956 -17.2701,-8.13463 -1.8111,-0.82617 -3.6064,-1.66814 -5.4177,-2.51021 -5.672,-2.60565 -11.3757,-5.19539 -17.0953,-7.75331 -1.9066,-0.85788 -3.8131,-1.71585 -5.7196,-2.55793 -5.5607,-2.4626 -11.1215,-4.89349 -16.6981,-7.30836 -2.0813,-0.88979 -4.1626,-1.79539 -6.244,-2.68508 -4.7346,-2.01775 -9.5009,-4.0196 -14.2672,-6.00564 -2.9393,-1.2233 -5.8626,-2.44669 -8.802,-3.65418 -3.5905,-1.47758 -7.197,-2.93925 -10.7877,-4.38502 -3.4318,-1.38225 -6.8794,-2.76449 -10.3272,-4.11493 -4.2261,-1.68415 -8.4364,-3.33649 -12.6784,-4.97291 -2.844,-1.09625 -5.7037,-2.19252 -8.5636,-3.27286 -4.8139,-1.843 -9.6439,-3.67009 -14.4896,-5.46547 -2.8282,-1.04854 -5.6721,-2.08128 -8.5001,-3.12991 -4.8457,-1.76347 -9.6915,-3.51114 -14.5532,-5.243 -2.9234,-1.03263 -5.8626,-2.06537 -8.786,-3.0981 -4.7346,-1.65234 -9.4691,-3.28876 -14.2196,-4.89339 -3.0981,-1.06454 -6.1962,-2.11308 -9.3102,-3.14581 -4.4646,-1.49348 -8.929,-2.97107 -13.4094,-4.41683 -3.4318,-1.11216 -6.8477,-2.22432 -10.2794,-3.32058 -3.8925,-1.2392 -7.7851,-2.4626 -11.6776,-3.67009 -4.0355,-1.2551 -8.0869,-2.51031 -12.1383,-3.73361 -2.9709,-0.90559 -5.942,-1.79537 -8.9288,-2.68507 -4.9889,-1.49348 -9.9937,-2.93925 -14.9983,-4.38501 -2.8916,-0.84208 -5.799,-1.66825 -8.6906,-2.47851 -5.1159,-1.44576 -10.2317,-2.87573 -15.3635,-4.27385 -2.7804,-0.74672 -5.5767,-1.50934 -8.3729,-2.25607 -5.243,-1.39813 -10.5018,-2.78037 -15.7607,-4.14672 -0.9851,-0.2542 -1.9702,-0.49252 -2.9552,-0.74674 27.3747,28.757 54.0345,60.32611 79.8999,94.67563 122.1457,162.18299 224.1615,382.84911 297.4839,642.3767 208.909,-37.12966 397.3387,-88.54275 550.6722,-150.50531 -0.3495,-0.42893 -0.699,-0.84207 -1.0485,-1.27101 z m 564.6694,1129.87912 c 0,3.5429 0,7.0701 -0.032,10.5653 -1.112,208.226 -35.2709,412.9408 -101.539,608.4246 -53.9551,159.2279 -128.4373,310.2576 -221.8896,450.1182 l 2.1291,1.0169 -56.8308,76.6587 c -87.3672,117.856 -188.3184,225.8614 -300.0735,321.0454 -112.2952,95.6607 -235.5054,178.3728 -366.2146,245.8325 -8.3094,4.2897 -16.6664,8.5318 -25.0392,12.6944 -8.3887,4.1784 -16.7934,8.2776 -25.2299,12.329 -4.2261,2.0178 -8.4523,4.0355 -12.6784,6.0215 -80.4561,37.8607 -163.5017,70.097 -248.3587,96.4232 -35.7159,11.0898 -71.7654,21.1149 -108.0531,30.0917 -27.8514,6.8634 -55.8617,13.1074 -84.0308,18.7317 -0.143,0.032 -0.2859,0.062 -0.4131,0.08 -0.3178,0.062 -0.6355,0.1271 -0.9532,0.1906 -121.7167,24.1972 -246.182,36.6374 -371.1874,37.0823 -0.08,0 -0.1748,0 -0.2702,0 -4.4009,0.062 -9.0402,0.062 -13.3139,0 -0.08,0 -0.159,0 -0.2226,0 -13.9017,-0.047 -27.8037,-0.2384 -41.6737,-0.5879 -110.6906,-2.7486 -220.7773,-14.9186 -328.6875,-36.3196 -28.9318,-5.7355 -57.7205,-12.1225 -86.3027,-19.1765 -145.199,-35.859 -286.2829,-88.8608 -419.3752,-157.5598 C 986.41988,3646.2022 863.1937,3563.4901 750.89856,3467.8294 639.14348,3372.6454 538.19221,3264.64 450.80914,3146.784 l -56.8371,-76.6587 2.14324,-1.0169 C 302.66779,2929.2319 228.18565,2778.2181 174.22262,2618.9903 107.96083,2423.4905 73.79723,2218.7916 72.67554,2010.5656 c -0.0271,-3.4952 -0.0286,-7.0224 -0.0286,-10.5653 0,-209.5924 33.4566,-415.7053 99.43718,-612.6508 53.7978,-160.5784 128.42773,-312.8791 222.33278,-453.91532 l -2.12579,-1.01683 56.53209,-76.51577 c 1.92242,-2.62154 3.90836,-5.19538 5.84669,-7.81683 3.55885,-4.75043 7.1019,-9.53268 10.70837,-14.26732 1.15988,-1.52519 2.35146,-3.03447 3.52714,-4.55978 4.43273,-5.78316 8.86536,-11.56633 13.36163,-17.30179 0.87388,-1.11216 1.76356,-2.20842 2.63745,-3.32058 4.82986,-6.13268 9.67563,-12.23366 14.56911,-18.30282 0.66732,-0.82617 1.35044,-1.65234 2.01776,-2.4785 5.13176,-6.32335 10.27942,-12.63079 15.49061,-18.89062 0.81026,-0.98501 1.65234,-1.97014 2.4785,-2.95515 5.08415,-6.08497 10.1841,-12.15414 15.33176,-18.17568 0.82617,-0.96912 1.68415,-1.92243 2.51032,-2.89154 5.17937,-6.02155 10.35885,-12.01118 15.60184,-17.96911 0.85798,-0.98513 1.74767,-1.95423 2.62146,-2.93926 5.22709,-5.92621 10.48599,-11.82063 15.7766,-17.66732 0.92149,-1.01682 1.87481,-2.01775 2.7963,-3.03457 5.27471,-5.79909 10.56542,-11.58226 15.90375,-17.31771 0.98502,-1.04865 2.00185,-2.09718 2.98687,-3.16173 5.30652,-5.65603 10.62894,-11.31216 15.99908,-16.90467 1.06444,-1.09625 2.12899,-2.1766 3.17753,-3.27286 5.33833,-5.54489 10.69256,-11.05797 16.0944,-16.53925 1.09625,-1.09625 2.19252,-2.17661 3.28877,-3.27286 5.40185,-5.44956 10.80369,-10.86731 16.26917,-16.25326 1.12806,-1.11216 2.28784,-2.20841 3.41591,-3.32057 5.44946,-5.33834 10.89902,-10.66076 16.4121,-15.91956 1.17568,-1.14396 2.38318,-2.25613 3.55885,-3.38419 5.49718,-5.21119 10.99436,-10.42237 16.53925,-15.58594 1.2234,-1.14387 2.4626,-2.25603 3.686,-3.40001 5.52889,-5.11585 11.07379,-10.21579 16.66629,-15.26813 1.28692,-1.17579 2.60565,-2.31966 3.89256,-3.47954 5.5607,-4.98871 11.1215,-9.97752 16.74572,-14.90272 1.30283,-1.15987 2.63746,-2.27193 3.94018,-3.43181 5.41775,-4.71862 10.85141,-9.45325 16.31688,-14.12427 0.20646,-0.17475 0.41303,-0.34951 0.6196,-0.52427 0.0475,-0.0476 0.11123,-0.095 0.15885,-0.14304 1.38224,-1.17569 2.79631,-2.33545 4.19436,-3.51114 5.59251,-4.76634 11.21683,-9.50098 16.87296,-14.18789 1.65234,-1.38225 3.33637,-2.71679 4.98871,-4.08312 5.48138,-4.51216 10.96266,-9.00842 16.47574,-13.45706 1.89061,-1.5252 3.79712,-3.00277 5.68784,-4.51216 5.32242,-4.25788 10.66075,-8.51586 16.03079,-12.71021 2.12898,-1.66825 4.28968,-3.28877 6.41867,-4.9411 5.16357,-4.0038 10.32715,-8.0234 15.53833,-11.96357 2.31966,-1.76357 4.67102,-3.49533 7.00657,-5.243 5.05234,-3.79713 10.10468,-7.61026 15.18871,-11.35978 2.52623,-1.843 5.05234,-3.65418 7.57856,-5.49717 4.94109,-3.59067 9.88219,-7.21314 14.85511,-10.77199 2.68497,-1.90652 5.38593,-3.78133 8.07101,-5.67194 4.86167,-3.43181 9.70744,-6.87942 14.58501,-10.26352 2.82802,-1.97014 5.68785,-3.89257 8.53177,-5.83089 4.78225,-3.27286 9.54859,-6.56162 14.34675,-9.78686 2.98686,-2.00185 6.00553,-3.97199 8.9925,-5.95793 4.70269,-3.11401 9.38959,-6.25983 14.10839,-9.32623 3.114,-2.03355 6.2598,-4.0196 9.3738,-6.02144 4.6392,-2.98687 9.2786,-5.98974 13.9337,-8.92899 3.257,-2.04946 6.5298,-4.05141 9.7868,-6.08497 4.5758,-2.85982 9.1355,-5.71965 13.7272,-8.53176 3.3999,-2.08138 6.81592,-4.09913 10.21582,-6.14859 4.4964,-2.71688 8.9767,-5.44956 13.5046,-8.11873 3.5272,-2.08127 7.0701,-4.13084 10.6132,-6.1962 4.4327,-2.57384 8.8494,-5.17948 13.2981,-7.7215 3.6382,-2.08138 7.2926,-4.11504 10.9467,-6.18041 4.385,-2.4785 8.7542,-4.95699 13.1551,-7.40369 3.7496,-2.08137 7.5308,-4.09913 11.3121,-6.1645 4.3216,-2.35146 8.6272,-4.73463 12.9804,-7.05418 3.8925,-2.08137 7.801,-4.11503 11.7093,-6.16449 3.9402,-2.08133 7.8644,-4.17852 11.8205,-6.22806 0.4132,-0.22242 0.8421,-0.42896 1.2553,-0.6514 0.1906,-0.0953 0.3812,-0.19065 0.5719,-0.28597 1.7794,-0.9215 3.543,-1.81122 5.3224,-2.71682 2.0973,-1.08038 4.1785,-2.16075 6.2757,-3.22524 2.1766,-1.09626 4.3533,-2.19251 6.5299,-3.28878 2.0018,-1.00094 4.0037,-2.01775 6.0215,-3.01868 2.2561,-1.12804 4.5439,-2.24019 6.8158,-3.36822 1.9225,-0.93739 3.8449,-1.89066 5.7673,-2.84393 2.3674,-1.14393 4.7505,-2.30373 7.1178,-3.44766 1.843,-0.88973 3.6702,-1.77944 5.5131,-2.66915 2.4467,-1.17571 4.8934,-2.33552 7.3561,-3.49533 1.7794,-0.84205 3.543,-1.7 5.3224,-2.52617 2.5262,-1.19158 5.0524,-2.36729 7.5943,-3.54298 1.7159,-0.81027 3.416,-1.60468 5.1318,-2.39906 2.5898,-1.19159 5.1953,-2.38318 7.801,-3.57477 1.6523,-0.74673 3.3205,-1.52523 4.9728,-2.27195 2.6533,-1.20748 5.3066,-2.38319 7.9599,-3.57477 1.6205,-0.73083 3.2412,-1.46168 4.8616,-2.17663 2.7327,-1.20747 5.4655,-2.41495 8.1822,-3.60654 1.5571,-0.68317 3.1141,-1.36636 4.6552,-2.04953 2.8122,-1.22336 5.6243,-2.43084 8.4365,-3.63832 1.4934,-0.6355 2.971,-1.28691 4.4644,-1.92242 2.8599,-1.22337 5.7196,-2.43084 8.5794,-3.63831 1.4617,-0.60375 2.9076,-1.22337 4.3693,-1.82711 2.9074,-1.22336 5.8148,-2.43084 8.7382,-3.62242 1.4141,-0.58786 2.8122,-1.17571 4.2261,-1.74766 2.9552,-1.22337 5.9263,-2.41495 8.8815,-3.60653 1.3822,-0.55609 2.7645,-1.12805 4.1466,-1.68412 3.0029,-1.20747 6.0056,-2.39907 9.0242,-3.57477 1.3347,-0.54019 2.6852,-1.08037 4.0356,-1.60467 3.0505,-1.19158 6.1009,-2.38317 9.1673,-3.57476 1.3028,-0.49253 2.6056,-1.01682 3.9243,-1.50934 3.0981,-1.19158 6.2122,-2.36729 9.3103,-3.55887 1.2709,-0.47664 2.542,-0.95327 3.8131,-1.42991 3.1616,-1.19159 6.3233,-2.36729 9.5008,-3.54298 1.2075,-0.44487 2.4309,-0.90562 3.6543,-1.35047 3.2093,-1.17571 6.4186,-2.3514 9.6439,-3.51122 1.1756,-0.42897 2.3672,-0.85793 3.5588,-1.2869 3.2571,-1.17571 6.514,-2.33553 9.7711,-3.47944 1.1597,-0.41308 2.3037,-0.82617 3.4635,-1.22337 3.2888,-1.15981 6.5776,-2.30373 9.8823,-3.43177 1.128,-0.39719 2.256,-0.79439 3.3841,-1.1757 3.3364,-1.14393 6.6728,-2.27197 9.9934,-3.4 1.1122,-0.36542 2.2085,-0.74672 3.3047,-1.11215 3.4,-1.12804 6.7841,-2.25607 10.1841,-3.36822 1.0485,-0.34954 2.0813,-0.68317 3.1299,-1.0327 3.4476,-1.12804 6.8794,-2.2243 10.3271,-3.33645 1.0168,-0.31775 2.0336,-0.6514 3.0504,-0.96916 3.4795,-1.11214 6.9748,-2.20841 10.486,-3.30467 0.9532,-0.30186 1.9224,-0.60373 2.8916,-0.9056 3.5589,-1.11215 7.1177,-2.19253 10.6925,-3.28878 0.9056,-0.2701 1.7953,-0.55609 2.7009,-0.82617 3.6384,-1.09626 7.2767,-2.17664 10.9149,-3.257 0.8421,-0.25422 1.6842,-0.50842 2.5262,-0.74674 3.7019,-1.09625 7.4037,-2.16075 11.1056,-3.24112 0.7784,-0.22242 1.557,-0.44485 2.3514,-0.66728 3.7814,-1.08038 7.5627,-2.16075 11.3439,-3.20934 0.715,-0.20655 1.414,-0.41309 2.129,-0.60375 3.8608,-1.08036 7.7057,-2.12896 11.5664,-3.17756 0.6513,-0.17476 1.3028,-0.36543 1.9541,-0.54019 3.9402,-1.06448 7.8963,-2.11307 11.8524,-3.16167 0.556,-0.143 1.0963,-0.30187 1.6523,-0.44487 4.0514,-1.06448 8.1028,-2.11308 12.1701,-3.14578 0.4608,-0.11122 0.9215,-0.23832 1.3822,-0.34954 4.1468,-1.06448 8.3094,-2.11308 12.472,-3.14579 0.2861,-0.0635 0.5561,-0.143 0.842,-0.20654 0.08,-0.0159 0.159,-0.0477 0.2384,-0.0635 0.9374,-0.22243 1.8906,-0.47664 2.828,-0.69907 3.4,-0.84205 6.8159,-1.65234 10.2318,-2.47851 0.3177,-0.0794 0.6196,-0.14298 0.9374,-0.22241 4.4804,-1.08038 8.9766,-2.12898 13.4729,-3.17757 0.1588,-0.0318 0.3177,-0.0635 0.4925,-0.11121 4.6074,-1.06449 9.2308,-2.11309 13.8541,-3.1458 0.047,-0.0159 0.1113,-0.0318 0.1589,-0.0318 137.8748,-30.806625 279.6896,-46.408475 422.1558,-46.408475 142.4662,0 284.2969,15.60185 422.1875,46.408365 v 0 c 4.6868,1.0486 9.3578,2.11308 14.0289,3.19345 0.095,0.0159 0.1906,0.0478 0.3019,0.0636 4.5597,1.06447 9.1037,2.12896 13.6635,3.22522 0.2383,0.0478 0.4766,0.11122 0.699,0.15889 3.4794,0.84205 6.9431,1.66822 10.4225,2.52615 0.9532,0.23832 1.9224,0.47664 2.8916,0.71495 0.047,0.0159 0.1112,0.0318 0.1747,0.0477 0.2065,0.0478 0.4132,0.0953 0.6197,0.15888 4.2578,1.0486 8.5,2.11309 12.7579,3.19345 0.3654,0.0953 0.7467,0.20655 1.1121,0.30187 4.1467,1.0486 8.2934,2.12898 12.4243,3.20935 0.4608,0.12711 0.9374,0.25421 1.4141,0.3813 4.0355,1.06449 8.071,2.12898 12.0906,3.22524 0.572,0.15887 1.144,0.31775 1.7158,0.47663 3.9402,1.06449 7.8645,2.14485 11.7888,3.24113 0.6515,0.17476 1.287,0.34951 1.9384,0.54018 3.8448,1.08037 7.6897,2.16074 11.5345,3.257 0.7308,0.20654 1.4457,0.42897 2.1766,0.63552 3.7655,1.08037 7.515,2.17664 11.2805,3.27289 0.7943,0.23832 1.5886,0.47663 2.3832,0.71495 3.6858,1.09626 7.3718,2.19252 11.0419,3.30467 0.858,0.2542 1.716,0.5243 2.5739,0.7785 3.6065,1.09626 7.2289,2.20842 10.8355,3.32057 0.9214,0.28597 1.8271,0.58784 2.7485,0.87381 3.5431,1.09628 7.086,2.20842 10.629,3.33646 0.9692,0.31775 1.9383,0.61962 2.8917,0.93738 3.4952,1.11215 6.9747,2.24019 10.4541,3.36822 1.0168,0.33365 2.0337,0.68317 3.0504,1.01682 3.4318,1.12803 6.8636,2.25607 10.2795,3.4 1.0486,0.34954 2.1131,0.71495 3.1617,1.06449 3.384,1.14392 6.7682,2.28783 10.1364,3.43176 1.0963,0.38131 2.1767,0.76262 3.2728,1.14392 3.3365,1.14394 6.6731,2.30374 9.9935,3.46355 1.128,0.39721 2.2402,0.7944 3.3524,1.19159 3.2887,1.15982 6.5934,2.33552 9.8822,3.51122 1.1599,0.41309 2.3196,0.84205 3.4635,1.25513 3.2571,1.17571 6.4982,2.35141 9.7234,3.54299 1.2074,0.44486 2.399,0.88972 3.5906,1.33457 3.1936,1.17571 6.387,2.36729 9.5804,3.55888 1.2234,0.46075 2.4467,0.93739 3.686,1.39813 3.1459,1.19159 6.2915,2.38318 9.4374,3.59065 1.2709,0.49253 2.542,0.98505 3.7972,1.47756 3.114,1.1916 6.2121,2.39907 9.3102,3.62244 1.2869,0.5084 2.558,1.01682 3.8449,1.52522 3.0822,1.20749 6.1485,2.43085 9.215,3.65421 1.3028,0.5243 2.6214,1.06448 3.9242,1.58878 3.0345,1.22336 6.0692,2.46261 9.1038,3.70187 1.3187,0.54018 2.6532,1.09626 3.9878,1.63645 3.0028,1.23925 6.0056,2.4785 8.9926,3.73364 1.3504,0.57197 2.7008,1.14392 4.0514,1.71588 2.9709,1.23925 5.9261,2.49439 8.8971,3.74953 1.3823,0.60374 2.7803,1.20748 4.1625,1.81121 2.9234,1.23925 5.831,2.49439 8.7384,3.76543 1.4299,0.61962 2.8439,1.25512 4.2738,1.87475 2.8598,1.25514 5.7197,2.51028 8.5795,3.78132 1.4616,0.65139 2.9233,1.30279 4.385,1.97008 2.828,1.25513 5.6403,2.51028 8.4523,3.78131 1.4777,0.68317 2.9552,1.36634 4.4328,2.03364 2.7804,1.27103 5.5606,2.54205 8.3411,3.82896 1.5093,0.69907 3.0187,1.39813 4.528,2.11308 2.7486,1.27104 5.4813,2.54205 8.214,3.82898 1.5411,0.73083 3.0823,1.46168 4.6233,2.19251 2.701,1.27103 5.386,2.54206 8.0552,3.84486 1.5888,0.74673 3.1775,1.52523 4.7663,2.28785 2.6374,1.27103 5.2749,2.55794 7.8963,3.84485 1.6205,0.77851 3.2253,1.58879 4.8457,2.38318 2.5898,1.27103 5.1796,2.54205 7.7533,3.82896 1.6524,0.82617 3.3048,1.66824 4.973,2.4944 2.5261,1.27102 5.0681,2.54205 7.5943,3.82897 1.6842,0.85794 3.3682,1.71589 5.0524,2.57382 2.129,1.09627 4.2579,2.17664 6.3709,3.27291 0.2384,0.11119 0.4607,0.23831 0.6991,0.34951 0.3814,0.20655 0.7627,0.3972 1.1439,0.58785 3.6384,1.89066 7.2608,3.82897 10.8992,5.75138 4.2261,2.22433 8.4681,4.41684 12.6784,6.67287 4.1785,2.24022 8.3411,4.52806 12.5038,6.7841 3.9084,2.14489 7.8486,4.25797 11.7569,6.41867 4.3692,2.41498 8.7224,4.89348 13.0757,7.35607 3.6702,2.06548 7.3561,4.11494 10.9944,6.19631 4.528,2.58974 9.0084,5.243 13.5206,7.86445 3.4635,2.01775 6.927,4.01961 10.3905,6.05326 4.6234,2.74859 9.1991,5.52899 13.8066,8.30939 3.3047,1.98595 6.6094,3.95609 9.8981,5.95793 4.7028,2.87563 9.3739,5.81487 14.0608,8.73833 3.1458,1.95413 6.3074,3.89245 9.4532,5.8785 4.7663,3.00278 9.4851,6.06906 14.2355,9.11955 3.0187,1.95423 6.0533,3.86074 9.072,5.83088 4.7981,3.11402 9.5486,6.29154 14.3149,9.45326 2.9234,1.95414 5.8785,3.87656 8.8018,5.84669 4.7982,3.22525 9.5804,6.51402 14.3468,9.78687 2.8439,1.95424 5.7037,3.86076 8.5318,5.8309 4.8457,3.35228 9.6439,6.76819 14.458,10.16819 2.7327,1.92242 5.4812,3.82893 8.2139,5.78316 4.8776,3.47943 9.7233,7.02248 14.5691,10.56543 2.6216,1.90651 5.259,3.78132 7.8646,5.70374 4.9252,3.63828 9.8345,7.32427 14.7279,11.01027 2.4944,1.8589 4.9889,3.70179 7.4674,5.5925 5.0205,3.79724 9.9774,7.65788 14.9504,11.50283 2.3355,1.81119 4.6869,3.59056 7.0224,5.40185 5.1,3.98778 10.1524,8.0392 15.2206,12.0747 2.1607,1.73177 4.3373,3.41591 6.4981,5.16357 5.2589,4.22617 10.486,8.51586 15.6971,12.80555 1.9225,1.58881 3.8608,3.12991 5.7673,4.71873 5.5291,4.59158 11.0261,9.23078 16.4916,13.87009 1.5093,1.28691 3.0345,2.52611 4.544,3.81303 0.062,0.0476 0.1112,0.095 0.1747,0.15895 0.1907,0.15886 0.3972,0.33361 0.6037,0.50836 5.4178,4.6234 10.7879,9.31032 16.1579,13.99724 1.3663,1.19158 2.7486,2.36726 4.115,3.55884 5.6083,4.9252 11.1533,9.89811 16.7139,14.88693 1.2869,1.17568 2.6057,2.31955 3.9085,3.49533 5.6084,5.06813 11.1692,10.19989 16.7299,15.33176 1.2074,1.11206 2.4308,2.22422 3.6224,3.33638 5.6244,5.22709 11.185,10.5019 16.7459,15.79251 1.1121,1.06455 2.2401,2.09718 3.3523,3.16173 5.5925,5.37003 11.1532,10.77188 16.6821,16.20554 1.0487,1.01683 2.0973,2.01775 3.1458,3.05049 5.5609,5.48127 11.0739,11.01026 16.5711,16.55516 0.985,1.00092 1.9859,1.97003 2.971,2.97095 5.6401,5.71966 11.2327,11.47102 16.7934,17.25419 0.8262,0.85798 1.6523,1.68415 2.4626,2.54213 5.6084,5.83078 11.1533,11.72518 16.6823,17.6196 0.7625,0.82616 1.5411,1.63642 2.3195,2.46259 5.545,5.95793 11.058,11.96348 16.5393,18.00093 0.715,0.77845 1.4458,1.557 2.1607,2.33545 5.6243,6.21212 11.2011,12.47194 16.7458,18.76358 0.5402,0.6196 1.0963,1.22329 1.6523,1.843 5.5768,6.33925 11.1056,12.72611 16.6028,19.14479 0.5085,0.57199 1.0169,1.14397 1.5095,1.73176 5.7196,6.68877 11.3915,13.42525 17.0316,20.17753 0.2543,0.3178 0.5085,0.6197 0.7785,0.9374 5.4972,6.62525 10.9626,13.2822 16.3646,19.98687 0.3812,0.46075 0.7625,0.9215 1.1439,1.38225 5.5925,6.94305 11.1373,13.9019 16.6345,20.90847 0.1907,0.23828 0.3813,0.47655 0.5561,0.71493 5.0842,6.46629 10.1047,12.9962 15.0934,19.52612 0.6038,0.77855 1.2075,1.557 1.8113,2.35136 3.8289,5.03653 7.6102,10.12058 11.3915,15.18881 1.7159,2.30375 3.4635,4.5916 5.1635,6.89534 l 56.5291,76.51576 -2.1291,1.01683 c 93.9131,141.03626 168.5382,293.33696 222.3344,453.91536 65.9822,196.9455 99.4419,403.0584 99.4419,612.6508"
       style="fill:#211d1d;fill-opacity:1;fill-rule:nonzero;stroke:none;stroke-width:0.158879"
       id="path16" />
  </g>
</svg>
